<svg xmlns="http://www.w3.org/2000/svg" width="1536" height="1536">
    <path d="m1707.743 972.163-237.637-186.762c-14.545-11.4-14.545-30.117 0-41.55l237.649-186.718c14.59-11.421 20.69-30.72 13.565-42.86-7.136-12.106-27.062-16.415-44.229-9.575l-282.584 112.554c-17.178 6.908-33.365-2.507-35.941-20.86l-42.496-301.677c-2.622-18.342-16.415-33.354-30.698-33.354-14.215 0-27.996 15.012-30.55 33.342l-42.518 301.7c-2.6 18.353-18.763 27.746-35.964 20.86L898.43 506.579c-17.236-6.862-45.312-6.862-62.502 0L557.972 617.264c-17.19 6.885-33.377-2.508-35.953-20.86l-42.462-301.7c-2.621-18.33-16.391-33.343-30.618-33.343-14.271 0-28.076 15.012-30.64 33.342l-42.519 301.7c-2.576 18.353-18.752 27.746-35.941 20.86L57.266 504.733c-17.178-6.874-37.07-2.542-44.206 9.552-7.124 12.152-1.049 31.462 13.497 42.86l237.671 186.718c14.557 11.434 14.557 30.15 0 41.562L26.557 972.164c-14.591 11.421-20.633 31.871-13.52 45.413 7.148 13.565 27.04 19.014 44.195 12.129l280.042-112.464c17.212-6.873 33.217 2.485 35.622 20.838l40.398 304.31c2.44 18.319 18.444 33.32 35.566 33.32 17.098 0 33.114-14.99 35.565-33.32l40.467-304.31c2.394-18.353 18.466-27.7 35.588-20.838l275.448 110.549c17.167 6.908 45.254 6.908 62.433 0l275.402-110.549c17.145-6.873 33.172 2.485 35.623 20.838l40.466 304.31c2.417 18.319 18.433 33.32 35.509 33.32 17.121 0 33.137-14.99 35.565-33.32l40.467-304.31c2.462-18.353 18.466-27.7 35.61-20.838l280.077 112.464c17.098 6.885 37.047 1.425 44.183-12.117 7.147-13.52 1.071-33.97-13.508-45.391zm-604.608-184.391L893.847 948.898c-14.648 11.285-38.677 11.285-53.28 0L631.211 787.772c-14.636-11.285-14.75-29.866-.228-41.322l209.744-165.207c14.522-11.457 38.335-11.457 52.869 0L1103.34 746.45c14.556 11.445 14.442 30.025-.228 41.333z"/>
</svg>
