<svg xmlns="http://www.w3.org/2000/svg" width="1536" height="1536">
    <path d="M 1214.4001,638.4 H 1152 c -33.6,0 -62.4,-28.8 -62.4,-62.4 0,-177.6 -144,-321.6 -321.6,-321.6 H 576 c -177.6,0 -321.6,144 -321.6,321.6 v 384 c 0,177.6 144,321.5999 321.6,321.5999 h 384 c 177.6,0 321.6001,-143.9999 321.6001,-321.5999 V 705.6 c 0,-38.4 -28.8,-67.2 -67.2,-67.2 z M 571.2,513.6 h 230.4 c 33.6,0 62.4,28.8 62.4,62.4 0,33.6 -28.8,62.4 -62.4,62.4 H 571.2 c -33.6,0 -62.4,-28.8 -62.4,-62.4 0,-33.6 28.8,-62.4 62.4,-62.4 z m 393.6,508.8 H 576 c -33.6,0 -62.4,-28.8 -62.4,-62.4 0,-33.6 28.8,-62.4 62.4,-62.4 h 388.8 c 33.59996,0 62.4,28.8 62.4,62.4 0,33.6 -28.80004,62.4 -62.4,62.4 z m 571.2001,383.9999 c 0,72 -57.6,129.6 -129.6,129.6 H 129.6 c -72,0 -129.6,-57.6 -129.6,-129.6 V 129.6 C 0,57.6 57.6,0 129.6,0 h 1281.6001 c 67.2,0 124.8,57.6 124.8,129.6 z"/>
</svg>
