<svg xmlns="http://www.w3.org/2000/svg" width="96" height="112">
    <path d="M75.9 47.9H72c-2.1 0-3.9-1.8-3.9-3.9 0-11.1-9-20.1-20.1-20.1H36c-11.1 0-20.1 9-20.1 20.1v24c0 11.1 9 20.1 20.1 20.1h24c11.1 0 20.1-9 20.1-20.1V52.1c0-2.4-1.8-4.2-4.2-4.2zm-40.2-7.8h14.4c2.1 0 3.9 1.8 3.9 3.9 0 2.1-1.8 3.9-3.9 3.9H35.7c-2.1 0-3.9-1.8-3.9-3.9 0-2.1 1.8-3.9 3.9-3.9zm24.6 31.8H36c-2.1 0-3.9-1.8-3.9-3.9 0-2.1 1.8-3.9 3.9-3.9h24.3c2.1 0 3.9 1.8 3.9 3.9 0 2.1-1.8 3.9-3.9 3.9zm35.7 24c0 4.5-3.6 8.1-8.1 8.1H8.1c-4.5 0-8.1-3.6-8.1-8.1V16.1C0 11.6 3.6 8 8.1 8h80.1c4.2 0 7.8 3.6 7.8 8.1v79.8z" class="st1"/>
</svg>
