<svg xmlns="http://www.w3.org/2000/svg" width="1536" height="1792">
    <path d="M640 256C286.518 256 0 542.532 0 896.018 0 1249.463 286.523 1536 640 1536c353.468 0 640.009-286.532 640.009-639.982C1280.009 542.532 993.464 256 640 256Zm0 155.685c267.511 0 484.323 216.84 484.323 484.324 0 267.524-216.812 484.306-484.323 484.306-267.502 0-484.306-216.782-484.306-484.306 0-267.484 216.804-484.324 484.306-484.324zm.018 76.803c-225.078 0-407.53 182.429-407.53 407.512 0 225.133 182.452 407.521 407.53 407.521 225.088 0 407.521-182.388 407.521-407.521 0-225.083-182.438-407.512-407.52-407.512z"/>
</svg>
