<svg xmlns="http://www.w3.org/2000/svg" width="1536" height="1792">
    <path d="M639.553 256.002C292.337 256.002 0 537.5 0 884.84V1536l639.433-.628c347.216 0 628.836-292.338 628.836-639.554C1268.269 548.6 986.399 256 639.553 256Zm1.734 242.316c115.434-1.196 229.441 48.928 306.664 144.037.241.296.506.567.747.863.012 0 .024 0 .05.123.478.592.922 1.196 1.396 1.782 1.81 2.268 3.676 4.472 5.443 6.791-.19-.185-.388-.345-.579-.53 3.461 4.48 6.82 9.026 10.067 13.63.563.802 1.128 1.603 1.685 2.409 85.108 122.688 94.547 287.668 14.21 422.018-91.36 152.773-272.632 222.017-439.406 175.199a389.854 389.854 0 0 1-26.346-8.429 337.417 337.417 0 0 1-3.805-1.397c-8.467-3.14-16.896-6.492-25.238-10.259l-253.274 57.34 1.036-.358-1.036.246.099-.333-.099.247 70.513-226.831c-.56-1.036-1.015-2.115-1.565-3.156a393.41 393.41 0 0 1-9.368-18.735c-.338-.728-.678-1.459-1.011-2.191-80.335-174.496-21.383-383.656 142.061-489.642 64.132-41.6 136.202-62.015 207.758-62.758z"/>
</svg>
