<svg xmlns="http://www.w3.org/2000/svg" width="1536" height="1536">
    <path d="M1515.43 768.866c-4.233-3.487-42.587-32.626-124.898-32.626-21.294 0-43.335 2.117-64.628 5.728-15.566-108.585-105.722-161.135-109.333-163.874l-22.041-12.826-14.196 20.546c-17.682 27.645-31.256 58.9-38.976 90.779-14.943 61.764-5.728 119.917 25.527 169.603-37.606 21.294-98.623 26.275-111.45 27.022H47.656c-26.274 0-47.568 21.294-47.568 47.568-1.37 88.04 13.449 175.954 43.957 259.012 34.743 90.779 86.545 158.271 153.29 199.364 75.213 46.075 197.995 72.35 336.342 72.35 62.387 0 124.899-5.729 186.663-17.06 85.922-15.566 168.233-45.452 244.069-88.662 62.511-36.237 118.548-82.311 166.116-136.23 80.194-90.156 127.763-190.897 162.505-280.306h14.196c87.292 0 141.211-34.742 170.973-64.628 19.924-18.43 34.742-41.218 45.451-66.746l6.351-18.43Zm-623.745 75.213h134.86c6.352 0 12.08-4.981 12.08-12.079V711.335c0-6.35-4.981-12.079-12.08-12.079h-134.86c-6.35 0-12.079 4.981-12.079 12.08V832c.748 7.098 5.729 12.079 12.08 12.079zM703.653 498.522h134.86c6.351 0 12.08-4.98 12.08-12.079V365.78c0-6.351-5.729-12.08-12.08-12.08h-134.86c-6.351 0-12.08 4.982-12.08 12.08v120.664c0 6.351 5.604 12.08 12.08 12.08zm0 173.09h134.86c6.351 0 12.08-5.728 12.08-12.079V538.868c0-6.35-5.729-12.079-12.08-12.079h-134.86c-6.351 0-12.08 4.981-12.08 12.08v120.664c0 6.475 5.604 12.079 12.08 12.079zm-186.663 0h134.86c6.351 0 12.08-5.728 12.08-12.079V538.868c0-6.35-4.982-12.079-12.08-12.079H516.99c-6.35 0-12.079 4.981-12.079 12.08v120.664c0 6.475 4.981 12.079 12.079 12.079zm-189.527 0h134.86c6.351 0 12.08-5.728 12.08-12.079V538.868c0-6.35-4.982-12.079-12.08-12.079h-134.86c-6.35 0-12.079 4.981-12.079 12.08v120.664c.747 6.475 5.728 12.079 12.079 12.079zm376.19 172.467h134.86c6.351 0 12.08-4.981 12.08-12.079V711.335c0-6.35-4.982-12.079-12.08-12.079h-134.86c-6.351 0-12.08 4.981-12.08 12.08V832c0 7.098 5.604 12.079 12.08 12.079zm-186.663 0h134.86c6.351 0 12.08-4.981 12.08-12.079V711.335c0-6.35-4.982-12.079-12.08-12.079H516.99c-6.35 0-12.079 4.981-12.079 12.08V832c0 7.098 4.981 12.079 12.079 12.079zm-189.527 0h134.86c6.351 0 12.08-4.981 12.08-12.079V711.335c0-6.35-4.982-12.079-12.08-12.079h-134.86c-6.35 0-12.079 4.981-12.079 12.08V832c.747 7.098 5.728 12.079 12.079 12.079zm-185.916 0h134.86c6.352 0 12.08-4.981 12.08-12.079V711.335c0-6.35-4.981-12.079-12.08-12.079h-134.86c-6.35 0-12.079 4.981-12.079 12.08V832c.747 7.098 5.728 12.079 12.08 12.079z"/>
</svg>
