<svg xmlns="http://www.w3.org/2000/svg" width="1536" height="1536">
    <path d="M314.174.041C140.724.041 0 140.763 0 314.213v907.613C0 1395.276 140.724 1536 314.174 1536h907.613c173.45 0 314.172-140.724 314.172-314.174V314.213c0-173.45-140.722-314.172-314.172-314.172H314.174zm0 139.633h907.613c95.998 0 174.54 78.541 174.54 174.539v907.613c0 95.998-78.542 174.541-174.54 174.541H314.174c-95.998 0-174.541-78.543-174.541-174.54V314.212c0-95.998 78.543-174.54 174.54-174.54zM448 256v1024h640v-192H640V832h448V640H640V448h448V256H448z"/>
</svg>
