<svg xmlns="http://www.w3.org/2000/svg" width="1536" height="1536">
    <path d="M1161.632 149.686a399.046 399.046 0 0 0-88.685 10.298L208.924 385.436C29.037 437.743-21.27 534.802 14.515 701.426l129.656 496.69c35.71 156.626 169.069 229.825 323.915 180.778l864.024-225.451c157.29-37.342 230.193-155.291 194.408-315.99l-129.58-496.69c-29.044-124.247-114.837-190.556-235.306-191.076Zm92.61 263.312c16.27-.935 30.923 9.776 34.97 25.56l46.158 176.925.74 3.112c5.013 18.32-6.021 37.179-24.448 41.784l-252.273 65.792c-18.32 5.014-37.18-6.021-41.786-24.45l-46.899-180.035c-5.062-18.345 5.984-37.258 24.45-41.86l252.273-65.791a34.67 34.67 0 0 1 6.891-1.037zm-756.89 48.752c22.588-1.24 42.907 13.65 48.529 35.562l57.566 220.637c6.84 25.48-8.502 51.627-34.081 58.085l-309.097 80.681c-25.48 6.84-51.627-8.5-58.085-34.08l-57.567-220.637c-6.889-25.503 8.463-51.703 34.08-58.16l309.098-80.608a47.861 47.861 0 0 1 9.632-1.481zm434.087 108.613 12.816 49.121L639.01 654.75l-12.891-49.12zm66.53 188.333c13.558 10.892 30.377 17.56 48.009 18.672L929.66 952.363a66.087 66.087 0 0 0-47.565-19.264Zm-416.822 66.236 150.549 145.214-38.528 10.076a64.235 64.235 0 0 0-16.3 7.04L524.098 839.823ZM882.243 983.26a15.485 15.485 0 0 1 15.93 11.633l32.227 123.653c2.44 8.377-2.626 17.091-11.113 19.114l-173.22 45.195c-8.399 2.384-17.082-2.752-19.04-11.26l-32.303-123.58c-2.437-8.401 2.67-17.128 11.188-19.116l173.219-45.194a15.337 15.337 0 0 1 3.112-.445z"/>
</svg>
