<svg width="1536" height="1792" viewBox="0 0 1536 1792" xmlns="http://www.w3.org/2000/svg">
    <path class="st0" d="M15.5 23.2C15.1 23.2 15 23 15.2 22.7L17.3 20c.2-.3.7-.5 1.1-.5h35.7c.4 0 .5.3.3.6l-1.7 2.6c-.2.3-.7.6-1 .6zM.4 32.4C0 32.4-.1 32.2.1 31.9l2.1-2.7c.2-.3.7-.5 1.1-.5h45.6c.4 0 .6.3.5.6l-.8 2.4c-.1.4-.5.6-.9.6zM24.6 41.6c-.4 0-.5-.3-.3-.6l1.4-2.5c.2-.3.6-.6 1-.6h20c.4 0 .6.3.6.7L47.1 41c0 .4-.4.7-.7.7zM128.4 21.4c-6.3 1.6-10.6 2.8-16.8 4.4-1.5.4-1.6.5-2.9-1-1.5-1.7-2.6-2.8-4.7-3.8-6.3-3.1-12.4-2.2-18.1 1.5-6.8 4.4-10.3 10.9-10.2 19 .1 8 5.6 14.6 13.5 15.7 6.8.9 12.5-1.5 17-6.6.9-1.1 1.7-2.3 2.7-3.7-3.6 0-8.1 0-19.3 0-2.1 0-2.6-1.3-1.9-3 1.3-3.1 3.7-8.3 5.1-10.9.3-.6 1-1.6 2.5-1.6 5.1 0 23.9 0 36.4 0-.2 2.7-.2 5.4-.6 8.1-1.1 7.2-3.8 13.8-8.2 19.6-7.2 9.5-16.6 15.4-28.5 17C84.6 77.4 75.5 75.5 67.5 69.5 60.1 63.9 55.9 56.5 54.8 47.3 53.5 36.4 56.7 26.6 63.3 18 70.4 8.7 79.8 2.8 91.3.7c9.4-1.7 18.4-.6 26.5 4.9 5.3 3.5 9.1 8.3 11.6 14.1.6.9.2 1.4-1 1.7z" transform="translate(0 512.385) scale(11.2178)"/>
    <path class="st0" d="m 161.5,76.7 c -9.1,-0.2 -17.4,-2.8 -24.4,-8.8 -5.9,-5.1 -9.6,-11.6 -10.8,-19.3 -1.8,-11.3 1.3,-21.3 8.1,-30.2 7.3,-9.6 16.1,-14.6 28,-16.7 10.2,-1.8 19.8,-0.8 28.5,5.1 7.9,5.4 12.8,12.7 14.1,22.3 1.7,13.5 -2.2,24.5 -11.5,33.9 -6.6,6.7 -14.7,10.9 -24,12.8 -2.7,0.5 -5.4,0.6 -8,0.9 z M 185.3,36.3 C 185.2,35 185.2,34 185,33 183.2,23.1 174.1,17.5 164.6,19.7 c -9.3,2.1 -15.3,8 -17.5,17.4 -1.8,7.8 2,15.7 9.2,18.9 5.5,2.4 11,2.1 16.3,-0.6 7.9,-4.1 12.2,-10.5 12.7,-19.1 z" transform="translate(0 512.385) scale(11.2178)"/>
</svg>
