<svg xmlns="http://www.w3.org/2000/svg" width="1536" height="1792">
    <path d="M554.263 256 0 576.006v639.988L554.263 1536l554.26-320.006V575.982Zm-57.213 77.077h.04c33.888 25.003 80.115 25.003 114 0l401.859 232.02a95.865 95.865 0 0 0 0 21.47L611.066 818.59c-33.885-25.003-80.106-25.003-113.991 0L95.192 586.573a96.003 96.003 0 0 0 0-21.475zm554.484 317.584.025.01a95.974 95.974 0 0 0 18.599 10.733v464.032c-38.596 16.845-61.708 56.88-56.998 98.728L611.277 1456.18a95.982 95.982 0 0 0-18.6-10.733l-.449-461.46c38.596-16.844 61.708-56.873 56.998-98.722zm-994.54 2.568L458.85 885.255c-4.71 41.848 18.403 81.883 56.999 98.728v464.032a95.991 95.991 0 0 0-18.6 10.737L95.393 1226.736c4.71-41.848-18.402-81.883-56.998-98.727V663.977a95.954 95.954 0 0 0 18.594-10.738z"/>
</svg>
