<svg xmlns="http://www.w3.org/2000/svg" width="1536" height="1792">
    <path d="M0 256v1280h1280V256Zm568.889 568.889h118.507v394.703c0 119.715-69.44 174.185-170.845 174.185-91.627 0-157.76-62.078-184.711-119.75l93.12-56.996c17.992 32.214 45.333 56.996 84.657 56.996 37.618 0 59.272-14.862 59.272-72.64zm371.912.035c72.995 0 125.438 25.28 163.27 91.484l-89.387 57.139c-19.663-35.129-40.923-48.961-73.883-48.961-33.636 0-54.934 21.228-54.934 48.96 0 34.276 21.334 48.143 70.578 69.37l28.694 12.23c97.6 41.565 152.638 84.019 152.638 179.45 0 102.826-81.209 159.181-190.222 159.181-106.631 0-167.182-53.51-200.889-119.75l90.24-59.912c24.605 39.965 51.343 78.258 107.983 78.258 47.573 0 72.533-23.644 72.533-56.355 0-39.147-25.813-53.05-78.15-75.84l-28.694-12.23c-82.809-35.13-137.885-79.148-137.885-172.126 0-85.689 65.601-150.898 168.108-150.898z"/>
</svg>
