<svg xmlns="http://www.w3.org/2000/svg" width="1536" height="1792">
    <path d="M203.045 391.895c-27.975.49-56.035 6.038-81.764 17.45-30.452 13.407-57.323 34.79-77.133 61.544-14.12 18.974-24.992 40.241-32.654 62.527a3.94 3.94 0 0 0-.002.01C1.915 561.534-1.98 591.679.961 621.334c2.525 26.215 10.275 51.812 22.223 75.203l.003.006.002.006c13.69 27.006 32.584 51.107 54.44 71.805l.002.002.004.004c14.396 13.689 30.055 26.038 46.668 36.908a3.94 3.94 0 0 0 .123.076c37.867 22.834 78.664 41.242 121.603 52.555 3.399.895 6.829 1.716 10.26 2.53-.671 22.802-.08 45.695 2.442 68.443a3.94 3.94 0 0 0 .004.021c4.853 41.705 17.403 82.338 35.865 119.926 4.739 9.677 9.918 19.13 15.383 28.414-35.454 14.478-70.927 28.92-106.354 43.492a3.94 3.94 0 0 0-.154.066c-14.332 6.62-24.425 21.036-25.59 36.819-1.201 14.1 4.567 28.471 15.433 37.654 10.83 9.322 26.073 13.136 40.022 9.455 6.467-1.67 12.102-4.52 17.557-6.625a3.94 3.94 0 0 0 .072-.029l113.398-46.299c21.047 23.803 44.19 45.703 68.907 65.625-23.505 31.128-47.04 62.236-70.477 93.428a3.94 3.94 0 0 0-.09.125c-9.066 13.104-10.369 30.859-3.135 45.105 6.426 13.065 19.336 22.548 33.856 24.454 13.828 1.956 28.391-2.758 38.146-12.956 3.678-3.768 6.583-8.007 9.336-11.664h.006c16.25-21.463 32.446-42.96 48.67-64.431a3.94 3.94 0 0 0 .002 0l17.367-23.002c38.498 22.891 79.376 41.86 121.979 55.824 16.717 27.54 42.166 49.528 71.74 62.217 39.343 17.011 85.199 18.27 125.309 2.967 25.256-9.542 47.985-25.516 65.562-45.997h.002c5.54-6.443 10.52-13.364 14.953-20.625 42.064-14.13 82.429-33.085 120.475-55.841 24.66 32.647 49.29 65.322 74.039 97.916a3.94 3.94 0 0 0 .11.138c10.2 12.254 26.968 18.264 42.64 15.104 13.705-2.596 25.872-11.764 31.887-24.442 6.285-12.893 5.978-28.627-1.123-41.183-3.123-5.545-7.124-10.003-10.36-14.469a3.94 3.94 0 0 0-.045-.06l-63.611-84.237c23.616-19.116 45.836-39.986 66.17-62.604 41.175 16.801 82.338 33.647 123.558 50.362a3.94 3.94 0 0 0 .157.059c15.003 5.353 32.48 2.01 44.365-8.66 10.48-9.202 16.306-23.274 15.05-37.252-1.12-14.05-9.102-27.236-21.251-34.528h-.01c-5.618-3.401-11.514-5.225-16.695-7.453a3.94 3.94 0 0 0-.069-.025l-89.85-36.68c21.2-35.008 37.632-73.06 47.224-112.972v-.002c6.031-24.905 9.116-50.424 9.964-75.94.395-9.931.467-19.875.293-29.814 39.76-9.49 77.939-24.956 113.576-44.74v-.002c7.875-4.363 15.796-8.85 23.413-13.977a3.94 3.94 0 0 0 .04-.027c29.326-20.274 55.972-44.942 76.762-74.211v-.008c19.651-27.564 33.75-59.41 39.17-93.057v-.01c5.563-34.009 2.108-69.265-9.187-101.719v-.002c-8.112-23.4-19.869-45.595-35.073-65.225a3.94 3.94 0 0 0-.012-.015c-19.409-24.797-44.871-44.851-73.718-57.598-25.638-11.446-53.61-17.217-81.569-17.705h-.02c-36.044-.796-71.865 6.47-105.41 18.936a365.151 365.151 0 0 0-67.33 33.322 3.94 3.94 0 0 0-.031.02c-30.407 19.57-56.715 44.84-79.346 72.702a3.94 3.94 0 0 0 0 .004c-.722.892-1.43 1.801-2.146 2.702-41.748-21.806-86.79-36.705-132.682-46.366a3.94 3.94 0 0 0-.002 0c-59.546-12.513-120.533-16.603-181.148-15.49-52.007.917-104.088 5.475-155.264 15.465a3.94 3.94 0 0 0-.002 0c-45.654 8.944-90.66 22.373-132.988 42.135-5.643 2.632-11.199 5.439-16.727 8.299-21.201-27.36-45.892-52.213-74.215-72.37a3.94 3.94 0 0 0-.01-.008c-18.474-13.058-38.486-23.668-59.002-32.777a3.94 3.94 0 0 0-.015-.006c-33.125-14.536-68.698-24.215-105.058-26.265a3.94 3.94 0 0 0-.006 0 265.68 265.68 0 0 0-18.361-.365 3.94 3.94 0 0 0-.012 0zm3.23 83.06v.004c17.563-.045 35.312 2.681 52.395 7.406a3.94 3.94 0 0 0 .008.002c8.955 2.457 17.861 5.496 26.459 8.924a285.777 285.777 0 0 1 24.373 11.123c7.023 3.63 14.017 7.486 20.62 11.727a3.94 3.94 0 0 0 .01.008c3.205 2.042 6.33 4.225 9.448 6.515a3.94 3.94 0 0 0 .004.002 229.22 229.22 0 0 1 8.02 6.178c15.525 12.536 29.535 26.923 42.191 42.422-31.352 25.43-58.384 56.229-79.086 90.934-19.65 32.8-33.728 68.773-42.496 105.89v-.006c-.869 3.655-1.63 7.335-2.398 11.014-11-2.944-21.872-6.387-32.538-10.422l-.023-.008c-1.821-.702-3.797-1.453-5.605-2.186a3.94 3.94 0 0 0-.026-.01c-16.975-6.738-33.412-14.878-49.37-23.894-6.12-3.494-12.103-6.974-17.522-11.03a3.94 3.94 0 0 0-.036-.027c-5.767-4.213-11.391-8.587-16.783-13.203v.002a255.428 255.428 0 0 1-6.37-5.646l-.009-.008a222.7 222.7 0 0 1-8.385-8.127 3.94 3.94 0 0 0-.006-.006c-15.013-15.34-27.802-32.98-36.076-52.63a3.94 3.94 0 0 0-.004-.007c-4.535-10.722-7.69-22.024-9.19-33.535a123.078 123.078 0 0 1-.546-5.002 3.94 3.94 0 0 0-.002-.021c-.151-1.626-.258-3.518-.344-5.121-.137-3.509-.142-7.016.002-10.512.05-.894.1-1.996.166-2.861a3.94 3.94 0 0 0 .002-.03c.335-4.902.998-9.795 1.934-14.646.265-1.309.57-2.805.875-4.11a3.94 3.94 0 0 0 .004-.015c2.442-10.633 6.267-20.967 11.101-30.82.374-.735.844-1.692 1.164-2.317l.004-.008c.873-1.689 1.75-3.354 2.617-4.908a3.94 3.94 0 0 0 .01-.018c6.079-11.02 13.443-21.31 22.375-29.974a3.94 3.94 0 0 0 .008-.01c10.587-10.34 23.466-18.34 37.41-23.323a3.94 3.94 0 0 0 .016-.006 122.568 122.568 0 0 1 5.92-1.964l.03-.008.003-.002c.904-.268 2.015-.601 2.913-.84a3.94 3.94 0 0 0 .039-.012 129.246 129.246 0 0 1 8.804-2.09c1.768-.344 3.385-.645 5.147-.924a3.94 3.94 0 0 0 .012-.004c6.426-1.035 13.043-1.615 19.527-1.8a210.12 210.12 0 0 1 3.205-.06zm1120.926.004h.012c2.476.01 4.931.058 7.37.149.552.034 1.265.068 1.779.097 3.793.216 7.574.557 11.257 1.049a3.94 3.94 0 0 0 0 .002c4.67.62 9.366 1.481 13.858 2.566a3.94 3.94 0 0 0 0 .002c7.686 1.849 15.188 4.412 22.3 7.76a111.27 111.27 0 0 1 3.448 1.701 3.94 3.94 0 0 0 .025.014c14.52 7.436 27.08 18.616 36.795 31.822a3.94 3.94 0 0 0 .01.01 119.136 119.136 0 0 1 2.836 4.018c7.3 10.792 13.248 22.512 17.7 34.768 4.48 12.472 7.158 25.593 7.5 38.773.038 1.559.053 3.337.03 4.959a160.192 160.192 0 0 1-.092 3.287v.027c-.055.942-.092 2.018-.156 2.817a3.94 3.94 0 0 0 0 .05 124.73 124.73 0 0 1-4.6 26.034c-3.142 10.904-7.81 21.597-13.562 31.515a3.94 3.94 0 0 0 0 .006 158.115 158.115 0 0 1-3.512 5.787c-13.568 21.298-31.904 39.391-52.217 54.641-4.929 3.658-9.772 7.21-14.86 10.108a3.94 3.94 0 0 0-.034.019c-15.185 8.857-30.784 16.967-46.883 23.871-14.56 6.257-29.473 11.544-44.75 15.754l-.597.16c-7.825-39.689-21.321-78.403-41.231-113.765v-.006c-20.785-37.062-48.548-70.127-81.291-97.194 12.398-14.812 26.053-28.566 41.147-40.52v-.001c7.668-6.065 15.859-11.723 24.378-16.524a3.94 3.94 0 0 0 .016-.008c14.79-8.42 30.276-15.613 46.295-21.273l.024-.008.01-.004c1.202-.413 2.588-.9 3.813-1.307a312.456 312.456 0 0 1 6.607-2.105c.885-.263 2.034-.6 3.037-.895l-.022.008a219.508 219.508 0 0 1 19.641-4.723 3.94 3.94 0 0 0 .01 0 200.84 200.84 0 0 1 12.783-2.025c4.849-.606 9.773-1.02 14.56-1.238 2.156-.097 4.346-.14 6.565-.178zm-544.008 65.666-.01.006h.05c15.087.102 30.138.35 45.124 1.201a3.94 3.94 0 0 0 .014 0c14.103.752 28.322 1.895 42.338 3.461a3.94 3.94 0 0 0 .002.002c14.744 1.64 29.428 3.77 44.008 6.451l-.002-.002c17.732 3.27 35.423 7.395 52.74 12.495a3.94 3.94 0 0 0 .002 0c17.323 5.088 34.473 11.24 51.023 18.53 12.755 5.63 25.305 11.987 37.326 19.106a318.238 318.238 0 0 1 15.196 9.574c18.202 12.197 35.235 26.431 50.027 42.604a3.94 3.94 0 0 0 .01.012 291.016 291.016 0 0 1 7.111 8.011 3.94 3.94 0 0 0 .012.014c7.904 9.152 15.207 18.796 21.633 28.979a3.94 3.94 0 0 0 .01.01c4.09 6.433 7.923 13.04 11.54 19.773 0 .006.01.012.01.018.614 1.179 1.323 2.514 1.925 3.7a3.94 3.94 0 0 0 .012.013 262.517 262.517 0 0 1 11.758 26.593c.675 1.824 1.42 3.783 2.058 5.596a3.94 3.94 0 0 0 .012.033 294.98 294.98 0 0 1 7.44 23.692c.446 1.726.952 3.587 1.361 5.279a3.94 3.94 0 0 0 .01.027c5.393 21.602 8.532 43.948 9.93 66.307.173 2.855.282 5.76.394 8.713v.058c.047 1.983.124 4.105.147 6.057a3.94 3.94 0 0 0 0 .025c.163 8.895.032 17.82-.205 26.768-.14 4.456-.36 9.154-.62 13.601-.594 9.81-1.56 19.577-3.167 29.168-.225 1.31-.472 2.81-.713 4.131a3.94 3.94 0 0 0 0 .014 276.262 276.262 0 0 1-5.451 24.164c-.47 1.685-.98 3.54-1.48 5.22a3.94 3.94 0 0 0-.01.022c-2.877 9.856-6.31 19.56-10.186 29.094-.526 1.249-1.112 2.692-1.61 3.86a3.94 3.94 0 0 0 0 .007c-7.146 16.862-15.767 33.107-25.521 48.647a382.814 382.814 0 0 1-11.604 17.383c-6.397 9.048-13.19 17.828-20.299 26.351-8.963 10.736-18.538 21.153-28.498 31.06-11.363 11.32-23.498 22.256-36.006 32.507-17.213 14.123-35.274 27.11-54.095 39.011a560.563 560.563 0 0 1-31.34 18.418c-12.24 6.662-24.742 12.809-37.44 18.496-3.155-27.82-13.75-54.779-30.888-76.994l-.004-.01c-16.549-21.543-38.873-38.503-63.996-48.785h-.006c-27.273-11.248-57.361-14.783-86.494-11.498a3.94 3.94 0 0 0-.004 0c-21.352 2.425-42.328 8.762-61.262 19.115h-.01c-19.495 10.601-36.727 25.382-49.969 43.246h-.006c-13.603 18.267-23.028 39.627-27.172 62.053-.89 4.735-1.475 9.52-1.914 14.318a553.48 553.48 0 0 1-78.406-42.584h-.004c-23.302-15.255-45.449-32.277-66.024-51.023-13.357-12.182-26.129-25.16-37.994-38.825-21.131-24.326-39.718-51.172-54.014-80.06a3.94 3.94 0 0 0-.002 0 322.712 322.712 0 0 1-5.484-11.635h-.002c-3.193-7.16-6.226-14.659-8.881-22.129a3.94 3.94 0 0 0-.002-.004 285.645 285.645 0 0 1-10.963-39.404l-.004-.018v-.002c-.212-1.079-.49-2.505-.7-3.597v-.006l-.003-.016a269.325 269.325 0 0 1-4.277-37.47 3.94 3.94 0 0 0 0-.003 3.94 3.94 0 0 0 0-.002 3.94 3.94 0 0 0 0-.006 533.859 533.859 0 0 1-.307-42.107v-.014c.099-2.796.236-5.795.394-8.615.676-12.03 1.866-23.94 3.655-35.85a3.94 3.94 0 0 0 0-.002 353.177 353.177 0 0 1 2.677-15.521c1.516-7.728 3.303-15.548 5.397-23.19a3.94 3.94 0 0 0 .002-.002c.757-2.768 1.56-5.54 2.369-8.193a3.94 3.94 0 0 0 .002-.004 310.539 310.539 0 0 1 6.918-20.127l.002-.008c2.852-7.434 5.943-14.684 9.422-21.824l.004-.006c5.149-10.519 11.09-20.821 17.562-30.676a3.94 3.94 0 0 0 0-.002c1.964-2.994 4.11-6.07 6.166-8.935l.002-.004c5.84-8.114 12.361-15.794 19.15-23.297l.013-.014c11.215-12.286 23.5-23.588 36.761-33.594a3.94 3.94 0 0 0 .012-.011c24.107-18.33 50.958-32.967 79.037-44.506a453.891 453.891 0 0 1 34.25-12.455 3.94 3.94 0 0 0 .002 0c11.43-3.658 23.164-6.94 34.95-9.827a3.94 3.94 0 0 0 .001 0c13.781-3.382 27.884-6.278 41.889-8.697 18.033-3.116 36.223-5.481 54.396-7.25v.002c18.222-1.766 36.45-2.916 54.784-3.566 11.278-.398 22.65-.562 34.01-.627zM538.691 929.092v.002c-23.098.47-45.743 10.493-61.507 27.431l-.006.006c-14.386 15.24-23.035 35.698-23.688 56.696-.765 20.79 6.05 41.747 19.223 57.937 13.634 16.967 33.683 28.622 55.322 31.65 21.13 3.101 43.3-1.767 61.041-13.785 17.955-12.02 31.27-30.77 36.287-51.875 5.151-21.104 2.233-44.04-8.426-63.056-10.461-18.921-28.054-33.738-48.66-40.506l-.004-.002c-9.515-3.184-19.56-4.694-29.578-4.498a3.94 3.94 0 0 0-.004 0zm450.293.545c-14.823.217-24.995 5.69-25.843 6.16-18.558 7.352-34.407 21.209-43.977 38.777a.03.03 0 0 1-.004.008.088.088 0 0 0-.006.01c-9.19 16.674-12.714 36.346-9.701 55.182 2.87 18.474 11.8 35.93 25.33 48.91 14.308 13.893 33.442 22.685 53.402 24.143 20.354 1.607 41.19-4.127 57.694-16.27 18.144-13.194 30.907-33.518 34.496-55.746 3.663-21.67-1.153-44.614-13.56-62.838-12.348-18.364-31.824-31.738-53.546-36.32-8.106-1.754-16.294-2.114-24.283-2.012a3.94 3.94 0 0 0-.006 0zm-221.511 239.885c2.264.026 4.567.076 6.69.183a3.94 3.94 0 0 0 .003 0c13.53.673 27.004 3.706 38.668 10.15a3.94 3.94 0 0 0 .008 0 62.457 62.457 0 0 1 7.324 4.747 3.94 3.94 0 0 0 .02.014c8.75 6.536 15.67 15.539 19.863 25.65a3.94 3.94 0 0 0 .01.022 73.698 73.698 0 0 1 2.746 7.74l.004.01a92.11 92.11 0 0 1 .877 3.242c.335 1.372.692 2.972.961 4.409a3.94 3.94 0 0 0 .002.01 86.225 86.225 0 0 1 1 6.771 3.94 3.94 0 0 0 0 .01 94.75 94.75 0 0 1 .54 9.102 3.94 3.94 0 0 0 0 .025c.122 7.577-.968 15.167-3.302 22.343a79.248 79.248 0 0 1-1.113 3.2 3.94 3.94 0 0 0-.008.02c-6.143 16.516-18.527 30.641-33.883 39.355a3.94 3.94 0 0 0-.017.012c-5.411 3.104-11.24 5.515-17.274 7.264-.474.124-1.138.311-1.595.435a83.134 83.134 0 0 1-17.858 2.705c-1.153.047-2.55.087-3.748.088a3.94 3.94 0 0 0-.02 0c-1.59.01-3.111-.024-4.689-.082h-.01c-.584-.037-1.343-.072-1.889-.105a3.94 3.94 0 0 0-.004 0 111.756 111.756 0 0 1-10.875-1.211c-.544-.098-1.202-.2-1.548-.266a3.94 3.94 0 0 0-.036-.012 85.218 85.218 0 0 1-10.742-2.65c-10.3-3.258-20.144-8.756-27.78-16.315a3.94 3.94 0 0 0-.01-.014c-3.148-3.088-6.074-6.689-8.468-10.316h-.004a66.975 66.975 0 0 1-2.78-4.611 3.94 3.94 0 0 0-.003-.01c-1.38-2.493-2.635-5.225-3.674-7.815l-.002-.01h-.002c-3.692-9.281-5.49-19.344-5.982-29.492-.01-.488-.034-1.168-.047-1.637a98.057 98.057 0 0 1 .049-6.353v-.01c.031-.495.063-1.168.09-1.645v-.01c.296-5.024 1.082-10.162 2.312-14.933l.002-.01a70.934 70.934 0 0 1 3.473-10.076c.388-.893.904-2.018 1.365-2.938a3.94 3.94 0 0 0 .012-.023 61.574 61.574 0 0 1 7.265-11.326h.002a58.743 58.743 0 0 1 5.04-5.457l.007-.01c.003 0 .005-.01.008-.01a67.853 67.853 0 0 1 2.196-1.979 3.94 3.94 0 0 0 .023-.019c4.002-3.476 8.486-6.436 13.256-8.884.446-.215 1.025-.506 1.445-.713h.008c10.818-5.163 22.896-7.689 35.055-8.358 2.341-.123 4.688-.188 7.039-.205z"/>
</svg>
