<svg width="1536" height="1536" xmlns="http://www.w3.org/2000/svg">
    <path d="m 504.9948,8e-6 c -0.21,0 -0.4152,0.0144 -0.624,0.0144 l 0.588,2.1252 z m 24.5556,1.74 a 81.138,81.138 0 0 0 -12.4464,0.924 l -0.1872,0.0276 -5.9076,-0.0804 -5.97,-0.198 h -0.072 c -116.9832,-2.9316 -235.6188,75.1656 -265.1412,191.671202 -6.8964,28.3296 -9.7116,55.176 -10.212,82.5876 v 300.888 c 17.4396,-6.0276 35.4444,-10.254 53.9424,-12.2964 l 2.664,-0.2844 v 16.0548 h 0.42 v -9.0504 c 0,-10.896 9.33,-19.5792 20.628,-19.5792 h 25.9104 c 4.2,0 8.1264,1.2048 11.4048,3.2736 0.1824,-98.556 -0.498,-196.7796 0.8016,-295.668 v -0.0996 c 1.872,-34.9104 16.152,-70.632 39.3036,-97.638 23.1504,-27.006 55.308,-45.3096 92.6832,-44.8812 l 2.352,0.0276 v 2.3676 c 0.5376,109.3104 -1.092,218.6424 0.864,327.8232 6.168,87.408 88.7256,159.984 175.8084,152.574 h 0.1464 c 55.4472,-1.3548 111.0552,3.216 165.648,-3.4716 82.2768,-15.57 139.434,-100.2252 131.7744,-182.7816 v -295.908 l 2.2176,-0.162 c 38.8656,-2.856 73.0584,14.736 97.8168,41.994 24.7572,27.258 40.2324,64.1916 41.9484,100.5348 v 0.0828 c 1.2612,96.4776 0.6648,192.3396 0.8028,288.474 2.3472,-0.84 4.872,-1.344 7.5192,-1.344 h 26.4288 c 11.4888,0 21.0192,8.6568 21.0192,19.596 v 14.3064 h 1.6308 v -20.8536 l 2.6544,0.294 c 19.1268,2.112 37.7352,6.5232 55.7244,12.888 v -315.246 c -3.9132,-35.0304 -9.48,-77.6004 -28.0224,-110.8224 l -0.046,-0.0636 -0.047,-0.0528 C 1135.1202,48.618008 1021.4322,-4.989592 914.259,3.074408 l -0.2424,0.018 -0.2412,-0.036 c -30.2328,-3.8652 -63.12,16.9692 -71.4864,45.6612 0.5196,128.768402 0.888,257.587202 -0.0732,386.346002 v 0.1488 c -3.702,55.3968 -57.5652,97.542 -111.6444,90.6864 -37.4028,1.6284 -80.4948,0.1008 -106.7088,-33.0336 -17.5956,-18.7548 -23.4408,-41.5992 -25.128,-65.1516 -1.6872,-23.5764 0.6852,-48.0024 -0.3096,-70.4352 v -0.1104 c 0.0912,-104.472 -0.3324,-208.8612 0.5976,-313.184402 -13.3224,-26.7264 -40.596,-42.1644 -69.492,-42.2268 z m 201.042,524.138402 h 0.1224 -0.4104 0.2832 z m 373.6752,26.7648 c -9.0144,0 -15.9936,6.5652 -15.9936,14.5392 v 794.97119 c 0,7.9728 6.9792,14.5296 15.9936,14.5296 h 26.4276 c 3.3108,0 6.162,-1.1052 8.6796,-2.6196 a 76.2792,76.2792 0 0 1 -12.7152,11.9832 c -15,11.2368 -29.2932,22.0464 -44.64,32.208 -13.7028,9.0732 -28.4676,18.9372 -42.4752,25.7244 -11.2224,5.436 -20.538,6.252 -20.538,6.252 H 866.7336 c 0.9096,3.7476 1.434,7.578 1.434,11.4972 0,7.764 -1.86,15.2172 -5.256,22.2528 0.5196,0.055 1.0236,0.1512 1.5588,0.1512 h 162.2808 c 1.0272,0 5.5836,-0.9156 10.344,-2.3232 4.7628,-1.4064 10.0932,-3.2724 13.9548,-4.9776 19.6512,-8.6784 32.6124,-19.8396 55.7592,-33.7056 24.2064,-15.5856 69.5976,-52.3356 69.5976,-52.3356 l 0.092,-0.082 0.1056,-0.064 c 6.15,-4.0104 8.2764,-11.4996 5.5416,-17.928 145.7964,-33.0312 257.4156,-199.5564 257.4156,-401.05679 0,-212.4528 -124.0152,-386.3076 -281.4192,-405.4944 v 792.87239 c -0.6192,-0.082 -1.176,-0.1704 -1.8096,-0.2436 -1.9128,-0.216 -3.792,-0.3588 -5.2656,-0.3396 -1.272,0 -1.9512,0.2424 -2.1384,0.2796 -0.2184,0.5892 -1.218,2.712 -2.664,5.3544 0.1008,-0.6648 0.4284,-1.2576 0.4284,-1.9464 V 567.18241 c 0,-7.974 -6.9792,-14.5392 -15.9936,-14.5392 z m -797.0076,4.7712 c -8.7972,0 -15.6468,6.5472 -15.6468,14.5656 v 795.01679 c 0,8.0184 6.8496,14.5656 15.6468,14.5656 h 25.9104 c 8.796,0 15.6456,-6.5472 15.6456,-14.5656 V 571.98001 c 0,-8.0184 -6.8496,-14.5656 -15.6456,-14.5656 z m -25.8396,13.104 C 124.0164,589.70641 0,763.56121 0,976.01401 0,1188.4656 124.0152,1362.312 281.4204,1381.5 Z m 118.5312,141.8736 V 1226.19 H 1042.44 V 712.39201 Z m 438.756,39.8148 h 162.2364 v 88.3992 h -97.512 v 69.3144 h 89.6712 v 85.67279 h -89.6724 v 102.3204 h 97.5132 v 88.3992 H 838.7064 Z m -184.7616,0.2844 h 64.7244 v 345.70799 h 97.512 v 88.3992 H 653.9496 Z m -217.176,3.1116 h 82.5432 c 17.1564,0 30.1512,1.1964 38.9916,3.588 8.8392,2.3928 17.1264,7.416 24.8676,15.0684 8.3688,8.2284 14.6232,19.23 18.756,33.006 4.1328,13.7784 6.2016,29.658 6.2016,47.6448 0,20.856 -2.8524,39.4248 -8.5536,55.6896 -5.7024,16.2648 -13.578,28.2228 -23.6208,35.8764 v 2.2956 c 14.436,5.55 26.004,16.8864 34.6872,34.01159 8.6832,17.1252 13.0176,40.2288 13.0176,69.3132 0,21.24 -2.19,39.894 -6.5844,55.968 -4.3944,16.0728 -10.3128,29.3796 -17.7408,39.9036 -8.7876,12.6288 -18.4356,21.6204 -28.9488,26.9784 -10.5144,5.358 -23.88,8.0364 -40.0956,8.0364 h -93.522 z m 58.3704,78.3552 v 90.4176 h 7.3764 c 10.044,0 17.0808,-0.192 21.108,-0.5736 4.0284,-0.3816 8.1864,-2.3916 12.4752,-6.0276 4.7076,-4.0176 7.9512,-9.5664 9.7296,-16.6464 1.7784,-7.0776 2.664,-15.3108 2.664,-24.684 0,-6.8844 -0.96,-13.9788 -2.8956,-21.2472 -1.9356,-7.272 -4.9452,-12.5328 -9.0252,-15.786 -3.8712,-3.06 -8.448,-4.7352 -13.7316,-5.022 -5.2824,-0.2844 -13.1592,-0.4272 -23.6208,-0.432 z m 0,163.60679 v 107.0556 h 3.144 c 15.2748,0 25.836,-0.1932 31.6944,-0.5748 5.8584,-0.3804 11.8236,-2.9652 17.892,-7.7496 5.3352,-4.2096 9.2316,-10.38 11.6892,-18.5124 2.46,-8.1312 3.6888,-17.364 3.6888,-27.696 0,-13.2036 -1.464,-23.5344 -4.392,-30.9972 -2.9292,-7.4628 -7.3284,-13.1064 -13.188,-16.9344 -3.5568,-2.4864 -8.4408,-3.8736 -14.6652,-4.1616 -6.2244,-0.2844 -14.568,-0.432 -25.0284,-0.432 z m 238.4184,389.916 c -35.9244,0 -68.4048,8.5668 -91.6944,22.206 -23.2896,13.6404 -37.1556,32.088 -37.1556,52.0488 0,19.9608 13.866,38.4168 37.1556,52.056 23.2896,13.6404 55.77,22.2084 91.6944,22.2084 35.9244,0 68.4144,-8.568 91.704,-22.2072 21.0696,-12.3396 34.3908,-28.626 36.7452,-46.398 0.0456,-0.252 0.0684,-0.5016 0.096,-0.7536 a 42.864,42.864 0 0 0 0.3108,-4.9056 c 0,-1.0584 -0.0504,-2.1096 -0.132,-3.1572 a 41.7372,41.7372 0 0 0 -0.216,-1.992 c -0.0444,-0.192 -0.0444,-0.39 -0.072,-0.582 -2.382,-17.7432 -15.696,-33.9936 -36.7368,-46.3176 -23.2896,-13.6392 -55.7796,-22.2072 -91.704,-22.2072 z" color="#000"/>
</svg>
