<svg xmlns="http://www.w3.org/2000/svg" width="1536" height="1792">
    <path d="M420.829 256c-.175 0-.346.012-.52.012l.49 1.771zm20.463 1.45a67.615 67.615 0 0 0-10.372.77l-.156.023-4.923-.067-4.975-.165h-.06c-97.486-2.443-196.349 62.638-220.951 159.726-5.747 23.608-8.093 45.98-8.51 68.823V737.3c14.533-5.023 29.537-8.545 44.952-10.247l2.22-.237v13.379h.35v-7.542c0-9.08 7.775-16.316 17.19-16.316h21.592c3.5 0 6.772 1.004 9.504 2.728.152-82.13-.415-163.983.668-246.39V472.592c1.56-29.092 13.46-58.86 32.753-81.365 19.292-22.505 46.09-37.758 77.236-37.401l1.96.023v1.973c.448 91.092-.91 182.202.72 273.186 5.14 72.84 73.938 133.32 146.507 127.145h.122c46.206-1.129 92.546 2.68 138.04-2.893 68.564-12.975 116.195-83.521 109.812-152.318v-246.59l1.848-.135c32.388-2.38 60.882 12.28 81.514 34.995 20.631 22.715 33.527 53.493 34.957 83.779v.069c1.051 80.398.554 160.283.669 240.395 1.956-.7 4.06-1.12 6.266-1.12h22.024c9.574 0 17.516 7.214 17.516 16.33v11.922h1.359v-17.378l2.212.245c15.939 1.76 31.446 5.436 46.437 10.74V471.489c-3.261-29.192-7.9-64.667-23.352-92.352l-.038-.053-.039-.044c-40.41-82.525-135.15-127.198-224.461-120.478l-.202.015-.201-.03c-25.194-3.221-52.6 14.141-59.572 38.051.433 107.307.74 214.656-.061 321.955v.124c-3.085 46.164-47.971 81.285-93.037 75.572-31.169 1.357-67.079.084-88.924-27.528-14.663-15.629-19.534-34.666-20.94-54.293-1.406-19.647.571-40.002-.258-58.696v-.092c.076-87.06-.277-174.051.498-260.987-11.102-22.272-33.83-35.137-57.91-35.189zm167.535 436.782h.102-.342.236zm311.396 22.304c-7.512 0-13.328 5.471-13.328 12.116v662.476c0 6.644 5.816 12.108 13.328 12.108h22.023c2.759 0 5.135-.921 7.233-2.183a63.566 63.566 0 0 1-10.596 9.986c-12.5 9.364-24.411 18.372-37.2 26.84-11.419 7.561-23.723 15.781-35.396 21.437-9.352 4.53-17.115 5.21-17.115 5.21H722.278c.758 3.123 1.195 6.315 1.195 9.581 0 6.47-1.55 12.681-4.38 18.544.433.046.853.126 1.299.126h135.234c.856 0 4.653-.763 8.62-1.936 3.969-1.172 8.411-2.727 11.629-4.148 16.376-7.232 27.177-16.533 46.466-28.088 20.172-12.988 57.998-43.613 57.998-43.613l.077-.068.088-.053c5.125-3.342 6.897-9.583 4.618-14.94 121.497-27.526 214.513-166.297 214.513-334.214 0-177.044-103.346-321.923-234.516-337.912v660.727c-.516-.068-.98-.142-1.508-.203-1.594-.18-3.16-.299-4.388-.283-1.06 0-1.626.202-1.782.233-.182.491-1.015 2.26-2.22 4.462.084-.554.357-1.048.357-1.622V728.652c0-6.645-5.816-12.116-13.328-12.116zm-664.173 3.976c-7.331 0-13.039 5.456-13.039 12.138v662.514c0 6.682 5.708 12.138 13.039 12.138h21.592c7.33 0 13.038-5.456 13.038-12.138V732.65c0-6.682-5.708-12.138-13.038-12.138zm-21.533 10.92C103.347 747.422 0 892.301 0 1069.345c0 177.043 103.346 321.915 234.517 337.905Zm98.776 118.228v428.165H868.7V849.66Zm365.63 33.179H834.12v73.666h-81.26v57.762h74.726v71.394h-74.727v85.267h81.261v73.666H698.922zm-153.968.237h53.937v288.09h81.26v73.666H544.958zm-180.98 2.593h68.786c14.297 0 25.126.997 32.493 2.99 7.366 1.994 14.272 6.18 20.723 12.557 6.974 6.857 12.186 16.025 15.63 27.505 3.444 11.482 5.168 24.715 5.168 39.704 0 17.38-2.377 32.854-7.128 46.408-4.752 13.554-11.315 23.519-19.684 29.897v1.913c12.03 4.625 21.67 14.072 28.906 28.343 7.236 14.271 10.848 33.524 10.848 57.761 0 17.7-1.825 33.245-5.487 46.64-3.662 13.394-8.594 24.483-14.784 33.253-7.323 10.524-15.363 18.017-24.124 22.482-8.762 4.465-19.9 6.697-33.413 6.697h-77.935zm48.642 65.296v75.348h6.147c8.37 0 14.234-.16 17.59-.478 3.357-.318 6.822-1.993 10.396-5.023 3.923-3.348 6.626-7.972 8.108-13.872 1.482-5.898 2.22-12.759 2.22-20.57 0-5.737-.8-11.649-2.413-17.706-1.613-6.06-4.121-10.444-7.521-13.155-3.226-2.55-7.04-3.946-11.443-4.185-4.402-.237-10.966-.356-19.684-.36zm0 136.339v89.213h2.62c12.729 0 21.53-.161 26.412-.479 4.882-.317 9.853-2.471 14.91-6.458 4.446-3.508 7.693-8.65 9.741-15.427 2.05-6.776 3.074-14.47 3.074-23.08 0-11.003-1.22-19.612-3.66-25.831-2.441-6.219-6.107-10.922-10.99-14.112-2.964-2.072-7.034-3.228-12.221-3.468-5.187-.237-12.14-.36-20.857-.36zm198.682 324.93c-29.937 0-57.004 7.139-76.412 18.505-19.408 11.367-30.963 26.74-30.963 43.374 0 16.634 11.555 32.014 30.963 43.38 19.408 11.367 46.475 18.507 76.412 18.507 29.937 0 57.012-7.14 76.42-18.506 17.558-10.283 28.659-23.855 30.621-38.665.038-.21.057-.418.08-.628a35.72 35.72 0 0 0 .259-4.088c0-.882-.042-1.758-.11-2.631a34.781 34.781 0 0 0-.18-1.66c-.037-.16-.037-.325-.06-.485-1.985-14.786-13.08-28.328-30.614-38.598-19.408-11.366-46.483-18.506-76.42-18.506z" color="#000"/>
</svg>
