<svg width="1536" height="1792" viewBox="0 0 1536 1792" xmlns="http://www.w3.org/2000/svg">
    <g stroke="#000" stroke-width="5">
        <path d="M 14,565 0,506 24,516 c 6.56269,-6.64067 11.24201,-11.8105 28,-21 l 16,-33 27,21 c 18.1706,-4.32547 36.23715,-8.85903 57,-8 l 26,-25 26,25 c 20.76285,-0.85903 38.8294,3.67453 57,8 l 27,-21 16,33 c 16.75799,9.1895 21.43731,14.35933 28,21 l 24,-10 -14,59 m -31,24 C 300.23935,553.26691 244.5365,522 178,522 110.13017,522 55.76065,553.26691 45,589" fill="none" stroke-linecap="round" transform="translate(-44.16 -2357.334) scale(5.56586)"/>
        <path d="m 326,592 -15,-3 -27,34 -37,11 -69,-39 -69,39 -37,-11 -27,-34 -15,3 -16,-27 31,87 c 21.90144,45.58806 89.3614,68 133,68 43.6386,0 111.09856,-22.41194 133,-68 l 31,-87 z" style="marker:none" color="#000" overflow="visible" fill-rule="evenodd" transform="translate(-44.16 -2357.334) scale(5.56586)"/>
    </g>
</svg>
