<svg xmlns="http://www.w3.org/2000/svg" width="1536" height="1536">
    <path d="M 607.7737,520.41805 V 402.93856 c 0,-21.40595 1.10299,-28.54671 4.40375,-39.52748 8.80749,-30.18894 38.54707,-52.69787 73.77702,-52.69787 35.23813,0 64.96953,23.05634 73.77702,52.69787 3.30894,10.98077 4.41192,18.12153 4.41192,39.52748 v 181.15813 c 0,10.98077 0,21.95337 -2.20596,31.83933 -6.04596,27.44375 -30.82621,52.15864 -58.35983,58.18825 -9.91047,2.19778 -20.92392,2.19778 -31.94553,2.19778 H 489.95107 c -21.47132,0 -28.6366,-1.10298 -39.65004,-4.39557 -29.73958,-8.78297 -52.86128,-38.42451 -52.86128,-73.55642 0,-35.13192 23.1217,-64.78162 52.86128,-73.5646 11.01344,-3.2926 18.17872,-4.38741 39.65004,-4.38741 h 117.83081 z m 647.5222,821.25345 H 280.70375 V 485.84171 c 0,-10.98893 3.85634,-20.31931 11.56902,-28.00748 L 545.00196,205.85669 c 7.70451,-7.68 17.06757,-11.51999 28.08102,-11.51999 H 1255.2959 V 1341.6796 Z M 1365.9696,1.10298 C 1361.0184,0.54741 1354.4087,0 1341.7449,0 H 547.19158 c -8.79115,0 -17.59864,0.54741 -23.66094,1.09481 -36.34927,3.29259 -68.83404,20.31115 -94.7091,46.11268 l -295.68,294.79764 c -25.88322,25.8097 -42.95897,58.18826 -46.25157,94.42314 A 268.74281,268.74281 0 0 0 85.787,460.02385 v 967.82705 c 0,12.6312 0.5474,19.2245 1.11114,24.1593 4.39557,41.1778 41.83149,78.4912 83.13192,82.8868 4.95932,0.5555 11.56085,1.103 24.22467,1.103 H 1341.7449 c 12.6638,0 19.2735,-0.5475 24.2247,-1.103 41.3004,-4.3956 78.7363,-41.7171 83.1482,-82.8868 0.5393,-4.9348 1.0948,-11.5281 1.0948,-24.1593 V 108.14912 c 0,-12.63114 -0.5555,-19.22452 -1.0948,-24.15933 -4.4119,-41.17787 -41.8478,-78.4994 -83.1482,-82.89498 z"/>
</svg>
