<svg xmlns="http://www.w3.org/2000/svg" width="167" height="200">
    <path d="M63.889 69.697V55.318c0-2.62.135-3.494.539-4.838 1.078-3.695 4.718-6.45 9.03-6.45 4.313 0 7.952 2.822 9.03 6.45.405 1.344.54 2.218.54 4.838v22.173c0 1.344 0 2.687-.27 3.897-.74 3.359-3.773 6.384-7.143 7.122-1.213.269-2.561.269-3.91.269H49.468c-2.628 0-3.505-.135-4.853-.538-3.64-1.075-6.47-4.703-6.47-9.003s2.83-7.929 6.47-9.004c1.348-.403 2.225-.537 4.853-.537h14.422Zm79.254 100.518H23.857V65.465c0-1.345.472-2.487 1.416-3.428l30.933-30.841c.943-.94 2.089-1.41 3.437-1.41h83.5v140.43Zm13.546-164.08c-.606-.068-1.415-.135-2.965-.135h-97.25c-1.076 0-2.154.067-2.896.134-4.449.403-8.425 2.486-11.592 5.644L5.796 47.86C2.628 51.019.538 54.982.135 59.417A32.893 32.893 0 0 0 0 62.305v118.458c0 1.546.067 2.353.136 2.957.538 5.04 5.12 9.607 10.175 10.145.607.068 1.415.135 2.965.135h140.448c1.55 0 2.359-.067 2.965-.135 5.055-.538 9.637-5.106 10.177-10.145.066-.604.134-1.411.134-2.957V19.237c0-1.546-.068-2.353-.134-2.957-.54-5.04-5.122-9.608-10.177-10.146Z"/>
</svg>
