<svg xmlns="http://www.w3.org/2000/svg" xml:space="preserve" id="Layer_1" width="1536" height="1536" x="0" y="0" version="1.1">
    <style id="style2" type="text/css">
        .st1{fill:#fff}
    </style>
    <path id="path4" fill="#000" stroke-width="6" d="M1536 768c0 424.2-343.8 768-768 768S0 1192.2 0 768 343.8 0 768 0s768 343.8 768 768z"/>
    <g id="g12" transform="scale(6)">
        <path id="path6" fill="#fff" d="M86.3 186.2H70.9V79.1h15.4v48.4z" class="st1"/>
        <path id="path8" fill="#fff" d="M108.9 79.1h41.6c39.6 0 57 28.3 57 53.6 0 27.5-21.5 53.6-56.8 53.6h-41.8zm15.4 93.3h24.5c34.9 0 42.9-26.5 42.9-39.7C191.7 111.2 178 93 148 93h-23.7z" class="st1"/>
        <path id="path10" fill="#fff" d="M88.7 56.8c0 5.5-4.5 10.1-10.1 10.1s-10.1-4.6-10.1-10.1c0-5.6 4.5-10.1 10.1-10.1s10.1 4.6 10.1 10.1z" class="st1"/>
    </g>
</svg>
