<svg xmlns="http://www.w3.org/2000/svg" width="2048" height="2048">
    <g transform="matrix(3.5135 0 0 3.64947 -60.57 -1683.771)">
        <path fill="none" stroke="#000" stroke-linecap="round" stroke-linejoin="round" stroke-width="19.212" d="M342.404 845.278c40.321-14.974 61.37-43.813 61.37-93.447 0-49.635-41.825-93.371-94.087-93.456-55.149-.09-96.751 43.64-96.086 93.456.665 49.815 24.421 82.955 62.446 94.939l-67.358 165.71C118.536 989.142 26.845 882.788 26.845 751.83c0-155.109 124.633-280.85 280.842-280.85 156.21 0 282.843 125.741 282.843 280.85 0 132.995-90.82 237.865-182.898 261.116z"/>
        <g style="line-height:125%;-inkscape-font-specification:&quot;Courier 10 Pitch&quot;">
            <path d="M-185.043 486.46c1.523.515 3 1.617 4.43 3.304 1.453 1.688 2.906 4.008 4.36 6.961l7.206 14.344h-7.629l-6.715-13.465c-1.734-3.515-3.422-5.847-5.062-6.996-1.617-1.148-3.832-1.723-6.645-1.723h-7.734v22.184h-7.102v-52.488h16.032c6 0 10.476 1.254 13.43 3.761 2.952 2.508 4.429 6.293 4.429 11.356 0 3.305-.773 6.047-2.32 8.226-1.524 2.18-3.75 3.692-6.68 4.536m-17.789-22.043v18.632h8.93c3.421 0 6-.785 7.734-2.355 1.758-1.594 2.637-3.926 2.637-6.996 0-3.07-.88-5.379-2.637-6.926-1.734-1.57-4.313-2.355-7.734-2.355h-8.93" font-family="OpenSymbol" font-size="72" font-weight="400" letter-spacing="0" style="line-height:100%;-inkscape-font-specification:OpenSymbol" transform="translate(685.4 692.863) scale(.62188)" word-spacing="0"/>
        </g>
        <circle cx="565.55" cy="994.911" r="23.014" fill="none" stroke="#000" stroke-linecap="round" stroke-linejoin="round" stroke-width="3.973"/>
    </g>
</svg>
