<svg width="1536" height="1792" xmlns="http://www.w3.org/2000/svg">
    <path style="mix-blend-mode:normal" d="M 1149.385,310.4892 C 522.94932,310.4892 19.108847,570.42744 19.108847,896 c 0,325.5755 503.842453,585.5108 1130.276153,585.5108 626.4318,0 1130.2812,-261.9363 1130.2812,-587.5108 0,-325.57158 -503.8494,-583.5108 -1130.2812,-583.5108 z m 0,-19.1092 C 514.605,291.38 0,562.083 0,896 c 0,333.92 514.607,604.62 1149.385,604.62 634.776,0 1149.39,-270.701 1149.39,-604.62 0,-333.916 -514.614,-604.62 -1149.39,-604.62 z m -100.221,164 h 124.573 l -35.207,166.587 h 111.94 c 61.385,1.168 107.117,13.382 137.214,36.636 30.693,23.251 39.725,67.452 27.087,132.569 l -60.488,290.439 h -126.38 l 57.773,-277.35 c 6.013,-29.079 4.205,-49.72 -5.418,-61.929 -9.623,-12.212 -30.384,-18.318 -62.286,-18.318 l -100.201,-0.871 -74.025,358.468 H 919.166 Z M 478.326,621.968 h 241.93 c 71.01,0.576 122.467,20.36 154.37,59.311 31.901,38.952 42.428,92.156 31.593,159.612 -4.206,30.823 -13.538,61.05 -27.982,90.705 -13.848,29.655 -33.091,56.402 -57.772,80.247 -30.096,30.232 -62.293,49.418 -96.598,57.564 -34.302,8.146 -69.816,12.205 -106.522,12.205 H 509.02 L 474.716,1247.33 H 349.231 L 478.328,621.968 Z m 1070.217,0 h 241.935 c 71.01,0.576 122.467,20.36 154.37,59.311 31.901,38.952 42.428,92.156 31.593,159.612 -4.205,30.823 -13.544,61.05 -27.988,90.705 -13.848,29.655 -33.093,56.402 -57.773,80.247 -30.097,30.232 -62.285,49.418 -96.59,57.564 -34.303,8.146 -69.817,12.205 -106.522,12.205 h -108.335 l -34.302,165.718 h -125.478 z m -925.78,99.435 c -7.221,0.576 -14.134,0.871 -20.76,0.871 h -18.24 l -53.98,260.787 c 3.58135,0.57566 7.20268,0.86657 10.83,0.87 h 12.64 c 57.775,0.576 105.927,-4.936 144.437,-16.571 38.51,-12.21 64.402,-54.651 77.636,-127.34 10.833,-61.053 0,-96.237 -32.497,-105.535 -31.903,-9.297 -71.914,-13.658 -120.066,-13.08 z m 1070.216,0 c -7.222,0.576 -14.135,0.871 -20.76,0.871 h -18.24 L 1600,983.061 c 3.583,0.57574 7.206,0.86665 10.835,0.87 h 12.633 c 57.776,0.576 105.926,-4.936 144.437,-16.571 38.512,-12.21 64.403,-54.651 77.638,-127.34 10.832,-61.053 0,-96.237 -32.499,-105.535 -31.902,-9.297 -71.913,-13.658 -120.065,-13.08 z" fill-rule="evenodd"/>
</svg>
