<svg width="1536" height="1792" viewBox="0 0 1536 1792" xmlns="http://www.w3.org/2000/svg">
    <path d="M 1280.0001,1600 768.00004,1024 256.00001,1600 M 1280.0001,192 768.00004,768 256.00001,192 M 1408.0001,320 896.00004,896 1408.0001,1472 Z m -1280.00009,0 512,576 -512,576 z M 1408.0001,1664 128.00001,128 1408.0001,128.00005 128.00001,1664 Z M 0,1792 V 0 h 1536 l 10e-5,1792 z" fill-rule="evenodd"/>
    <path d="M 1344.0001,512 1024,896.00003 1344.0001,1280"/>
    <path d="m 960.00004,1472 -192,-256 -192.00001,256" fill="#fff"/>
    <path d="M 191.99992,512 512.00002,896.00003 191.99992,1280"/>
    <path d="m 960.00004,320 -192,256 -192.00001,-256" fill="#fff"/>
</svg>
