<svg xmlns="http://www.w3.org/2000/svg" width="300" height="350">
    <path d="M222.769 252.358c-16.181 17.258-38.166 22.936-64.779 25.627-53.887 5.449-100.569-18.615-106.222-78.744-2.404-25.562 3.285-49.862 14.755-69.775l-6.678-26.261c-1.078-4.566 3.123-8.908 7.572-7.828l23.069 5.6c13.718-11.264 30.312-18.625 48.616-20.475 15.657-1.583 30.837 1.042 44.638 7.03l21.684-13.117c4.081-2.469 9.248.322 9.637 5.204l1.251 30.935c16.676 17.607 28.031 41.65 30.598 68.953 1.45 15.422-.15 27.219-4.238 38.474-1.914 5.268-2.49 9.723.97 14.132 3.342 4.261 8.643 12.531 14.554 11.144 8.884-2.083 18.398-1.527 24.278 2.145C293.655 224.407 300 200.446 300 175c0-82.843-67.157-150-150-150S0 92.157 0 175c0 82.842 67.157 150 150 150 42.48 0 80.831-17.663 108.123-46.04-4.787-.719-9.684-2.579-14.334-5.678-8.931-5.954-16.856-11.578-21.02-20.924"/>
    <path d="m208.92 142.383 14.009-1.717-.198-2.524-14.373 1.762a63.484 63.484 0 0 0-2.082-5.326l15.832-5.051-.497-3.169-16.838 5.833c-11.295-23.681-35.717-38.058-63.366-35.262-27.605 2.791-49.463 22.668-56.17 48.105l-16.47-2.495-.176 3.237 16.217 1.757c-.439 1.871-.803 2.98-1.075 4.904l-14.148 1.129.128 2.531 13.79-1.101c-.242 2.141-.388 3.518-.415 5.707l-12.598 5.151.618 3.123 11.997-5.615c.028 1.673.1 2.566.259 4.259 3.335 35.463 32.956 42.476 68.347 38.897 35.39-3.579 63.147-16.394 59.813-51.857-.16-1.702-.404-2.586-.691-4.242l12.996 2.823.302-2.862-13.63-2.589c-.429-2.108-.956-3.387-1.581-5.408"/>
</svg>
