<svg xmlns="http://www.w3.org/2000/svg" width="1536" height="1536">
    <path d="m 1140.5773,1164.073 c -82.8467,88.3609 -195.40994,117.4323 -331.6685,131.2102 -275.90144,27.8989 -514.91328,-95.3088 -543.85664,-403.16928 -12.30848,-130.87744 16.8192,-255.29344 75.5456,-357.248 L 306.4064,400.4096 c -5.51936,-23.37792 15.98976,-45.60896 38.76864,-40.07936 l 118.11328,28.672 c 70.23616,-57.67168 155.19744,-95.36 248.91392,-104.832 80.16384,-8.10496 157.88544,5.33504 228.54656,35.9936 l 111.0221,-67.15904 c 20.8947,-12.64128 47.3498,1.64864 49.3415,26.64448 l 6.4051,158.3872 c 85.3811,90.14784 143.5187,213.248 156.6617,353.03936 7.424,78.96064 -0.768,139.36128 -21.6985,196.98688 -9.7997,26.97218 -12.7488,49.78178 4.9664,72.35588 17.111,21.8163 44.2521,64.1587 74.5165,57.0572 45.486,-10.6649 94.1977,-7.8182 124.3033,10.9824 C 1503.5136,1020.9638 1536,898.28352 1536,768 1536,343.84384 1192.1562,0 768,0 343.84384,0 0,343.84384 0,768 c 0,424.151 343.84384,768 768,768 217.4976,0 413.8548,-90.4346 553.5898,-235.7248 -24.5094,-3.6813 -49.5821,-13.2045 -73.3901,-29.0714 -45.7267,-30.4844 -86.3027,-59.2793 -107.6224,-107.1308"/>
    <path d="m 1069.6704,601.00096 71.7261,-8.79104 -1.0137,-12.92288 -73.5898,9.02144 a 325.03808,325.03808 0 0 0 -10.6598,-27.26912 l 81.0598,-25.86112 -2.5446,-16.22528 -86.2106,29.86496 C 990.60736,427.5712 865.56672,353.96096 724.00384,368.27648 582.66624,382.5664 470.75328,484.33664 436.41344,614.57408 l -84.3264,-12.7744 -0.90112,16.57344 83.03104,8.99584 c -2.24768,9.57952 -4.11136,15.2576 -5.504,25.10848 l -72.43776,5.78048 0.65536,12.95872 70.6048,-5.63712 c -1.23904,10.96192 -1.98656,18.01216 -2.1248,29.21984 l -64.50176,26.37312 3.16416,15.98976 61.42464,-28.7488 c 0.14336,8.56576 0.512,13.13792 1.32608,21.80608 17.0752,181.57056 168.73472,217.47712 349.93664,199.15264 181.1968,-18.32448 323.31268,-83.93728 306.24258,-265.50784 -0.8192,-8.71424 -2.0685,-13.24032 -3.5379,-21.71904 l 66.5395,14.45376 1.5463,-14.65344 -69.7856,-13.25568 c -2.1965,-10.79296 -4.8948,-17.34144 -8.0948,-27.68896"/>
</svg>
