<svg width="1536" height="1792" viewBox="0 0 1536 1792" xmlns="http://www.w3.org/2000/svg">
    <path d="m 888.34009,1789.9934 c -2.42955,-0.983 -15.75612,-20.0616 -29.61428,-42.3966 -20.11486,-32.4181 -27.14739,-40.9822 -34.86596,-42.4574 -5.31778,-1.0168 -11.38732,-0.9899 -13.48821,0.057 -2.10089,1.0492 -16.75035,16.037 -32.5546,33.3061 -30.96159,33.8318 -41.21316,40.2584 -56.07669,35.1554 -10.43943,-3.584 -12.76372,-7.8453 -30.94758,-56.7415 -14.51837,-39.0394 -16.12537,-41.6184 -27.75836,-44.5382 -6.72651,-1.6882 -17.00466,3.9277 -48.65876,26.5867 -22.07172,15.7999 -43.13123,28.7271 -46.79854,28.7271 -3.6673,0 -10.87835,-3.6368 -16.02478,-8.0817 -8.17977,-7.0645 -10.2566,-13.7317 -16.50466,-52.9802 -5.63673,-35.4093 -8.71999,-46.2267 -14.58804,-51.1842 -4.09258,-3.4572 -9.54181,-6.2858 -12.10892,-6.2858 -2.56747,0 -22.57996,8.0818 -44.47242,17.9595 -43.53137,19.6407 -56.85327,21.7664 -66.89291,10.6725 -5.82422,-6.4355 -6.49339,-13.0518 -5.72832,-56.6407 0.83475,-47.5391 0.56141,-49.63 -7.43159,-56.8726 l -8.2983,-7.5189 -41.30654,10.1144 c -48.18033,11.7978 -56.6647,12.4088 -67.44644,4.8569 -10.55077,-7.3899 -10.29359,-18.5211 1.63215,-70.6377 9.36691,-40.9345 9.45168,-42.3094 3.04519,-49.3883 -6.03291,-6.6666 -10.92145,-7.2819 -57.85467,-7.2819 -51.10375,0 -51.28802,-0.036 -58.7092,-9.4642 -4.09437,-5.205 -7.44451,-11.4344 -7.44451,-13.8427 0,-2.4084 8.92185,-24.0296 19.82607,-48.0475 18.94641,-41.7307 19.59151,-44.1225 14.53559,-53.8993 -5.0509,-9.7676 -7.42476,-10.5658 -52.45932,-17.6385 -73.098592,-11.48 -76.789599,-20.1026 -33.974822,-79.3614 14.811102,-20.4999 26.907452,-39.0879 26.880512,-41.3065 -0.20115,-16.5547 -4.40221,-19.7288 -46.097392,-34.8336 -46.975606,-17.0176 -58.018107,-24.6878 -58.018107,-40.298 0,-8.733 6.29943,-16.5661 36.100129,-44.8909 48.75286,-46.33792 48.68965,-47.03979 -7.365132,-81.73692 -62.561467,-38.72505 -62.530937,-47.13508 0.312492,-86.04657 55.69811,-34.48701 55.7642,-35.25211 7.052278,-81.55128 C 1.211851,721.10862 3.380271,712.68038 76.153068,686.3171 117.84826,671.21215 122.04931,668.038 122.25046,651.48347 122.28636,649.2647 110.1814,630.67681 95.369958,610.17684 52.615881,551.00278 56.185846,542.6373 129.16842,530.97664 c 45.15846,-7.21464 47.58694,-8.0361 52.63459,-17.79702 5.05736,-9.77996 4.4137,-12.16711 -14.53415,-53.90182 -10.90457,-24.01778 -19.82607,-45.63906 -19.82607,-48.04741 0,-2.40835 3.34978,-8.63775 7.44451,-13.84273 7.42082,-9.43441 7.60508,-9.46423 58.7092,-9.46423 46.93286,0 51.82141,-0.61529 57.85467,-7.28179 6.40612,-7.07887 6.32135,-8.45385 -3.04555,-49.38828 -11.92538,-52.1163 -12.18255,-63.24787 -1.63179,-70.63779 10.78175,-7.55192 19.26575,-6.94094 67.44643,4.85693 l 41.30655,10.11436 8.29794,-7.51887 c 7.99336,-7.24266 8.26634,-9.33349 7.43194,-56.87266 -0.76542,-43.58882 -0.0969,-50.20506 5.72796,-56.64061 10.03966,-11.09387 23.36156,-8.96819 66.89291,10.67254 21.89248,9.87765 41.90531,17.95936 44.47242,17.95936 2.56748,0 8.01635,-2.8286 12.10893,-6.28578 5.8684,-4.95714 8.95131,-15.77479 14.58804,-51.18421 6.24807,-39.248398 8.32489,-45.91527 16.50467,-52.980136 5.14643,-4.444942 12.35783,-8.08171 16.02478,-8.08171 3.6673,0 24.72681,12.927156 46.79888,28.727088 31.65375,22.658978 41.9319,28.274868 48.6584,26.586688 11.63301,-2.91983 13.24037,-5.49879 27.75836,-44.538151 18.21404,-48.977004 20.49919,-53.148957 31.14406,-56.859727 14.34559,-5.000964 23.84035,1.064991 55.94631,35.743819 15.76798,17.031221 30.38798,31.815731 32.48887,32.854511 2.10052,1.03913 8.17043,1.05708 13.48784,0.0396 7.7236,-1.47625 14.77123,-10.071612 35.03119,-42.723543 18.28012,-29.461672 27.80362,-41.4883485 34.10412,-43.0698465 18.82896,-4.725467 25.26668,0.649052 51.58758,43.0697965 20.25996,32.651931 27.30762,41.247293 35.03122,42.723543 5.3177,1.01687 11.3873,0.99855 13.4882,-0.0396 2.1005,-1.03878 16.72047,-15.82329 32.48847,-32.854511 32.1063,-34.678828 41.601,-40.744783 55.9463,-35.743819 10.6451,3.71077 12.9299,7.882723 31.1441,56.859727 14.5183,39.039361 16.1253,41.618321 27.7582,44.538151 6.7265,1.68818 17.0047,-3.92771 48.6589,-26.586688 22.0717,-15.799932 43.1312,-28.727088 46.7985,-28.727088 3.6673,0 10.8783,3.636768 16.0247,8.08171 8.1797,7.064866 10.2566,13.731738 16.5047,52.980136 5.6367,35.40942 8.7199,46.22707 14.588,51.18421 4.0926,3.45718 9.5418,6.28578 12.109,6.28578 2.5675,0 22.5799,-8.08171 44.4724,-17.95936 43.5313,-19.64073 56.8533,-21.76641 66.8929,-10.67254 5.8242,6.43555 6.4933,13.05179 5.7283,56.64061 -0.8347,47.53917 -0.5614,49.63 7.4316,56.87266 l 8.2983,7.51887 41.3065,-10.11436 c 48.1804,-11.79787 56.6647,-12.40885 67.4465,-4.85693 10.5507,7.38992 10.2935,18.52149 -1.6322,70.63779 -9.3669,40.93443 -9.4517,42.30941 -3.0452,49.38828 6.0329,6.6665 10.9215,7.28179 57.8546,7.28179 51.1038,0 51.2881,0.0359 58.7093,9.46423 4.0943,5.20498 7.4445,11.43438 7.4445,13.84273 0,2.40835 -8.9219,24.02963 -19.8261,48.04741 -18.9482,41.73471 -19.5919,44.12186 -14.5345,53.90182 5.0476,9.76092 7.4765,10.58238 52.635,17.79702 72.9822,11.66066 76.5521,20.02614 33.7981,79.2004 -14.8112,20.49997 -26.9075,39.08786 -26.8806,41.30663 0.2012,16.55453 4.4022,19.72868 46.0975,34.83363 46.9756,17.01758 58.0181,24.6876 58.0181,40.29795 0,8.73285 -6.2994,16.56608 -36.1002,44.89088 -48.7529,46.33802 -48.6897,47.03988 7.3652,81.73702 62.5614,38.72505 62.5309,47.13508 -0.3126,86.04656 -55.698,34.48737 -55.7642,35.25212 -7.0522,81.55124 53.0236,50.3972 50.8552,58.8256 -21.9176,85.1889 -41.6956,15.1048 -45.8963,18.2789 -46.0975,34.8336 -0.036,2.2186 12.0691,20.8066 26.8806,41.3065 42.8148,59.2588 39.1234,67.8814 -33.9748,79.3614 -45.035,7.0727 -47.4085,7.8709 -52.4597,17.6385 -5.0556,9.7768 -4.4109,12.1683 14.5355,53.8993 10.9046,24.0179 19.8261,45.6391 19.8261,48.0475 0,2.4083 -3.3497,8.6377 -7.4441,13.8427 -7.4212,9.4345 -7.6054,9.4642 -58.7096,9.4642 -46.9328,0 -51.8214,0.6153 -57.8543,7.2819 -6.4064,7.0789 -6.3217,8.4538 3.0452,49.3883 11.9253,52.1166 12.1826,63.2478 1.6318,70.6377 -10.7817,7.5519 -19.2657,6.9409 -67.4465,-4.8569 l -41.3065,-10.1144 -8.2979,7.5189 c -7.9933,7.2426 -8.2663,9.3335 -7.4319,56.8726 0.7653,43.5889 0.097,50.2052 -5.728,56.6407 -10.0396,11.0939 -23.3619,8.9682 -66.8929,-10.6725 -21.8925,-9.8777 -41.9053,-17.9595 -44.4724,-17.9595 -2.5675,0 -8.0164,2.8286 -12.109,6.2858 -5.8684,4.9575 -8.9512,15.7749 -14.5883,51.1842 -6.2478,39.2485 -8.3245,45.9157 -16.5044,52.9802 -5.1464,4.4449 -12.3578,8.0817 -16.0247,8.0817 -3.6677,0 -24.7268,-12.9272 -46.7989,-28.7271 -31.6538,-22.659 -41.932,-28.2749 -48.6584,-26.5867 -11.633,2.9198 -13.2403,5.4988 -27.7587,44.5382 -18.1835,48.8962 -20.5078,53.1579 -30.9472,56.7415 -14.8639,5.103 -25.1152,-1.3236 -56.0771,-35.1554 -15.8042,-17.2691 -30.45367,-32.2569 -32.55457,-33.3061 -2.1005,-1.0492 -8.1704,-1.0757 -13.4878,-0.057 -7.7168,1.4752 -14.74323,10.026 -34.79989,42.3507 -13.82189,22.2765 -27.68473,41.4826 -30.80606,42.6801 -6.54296,2.5111 -19.24239,2.4235 -25.66789,-0.1759 z m 109.42464,-251.0802 c 48.67887,-7.2283 97.74127,-20.0706 140.79277,-36.8533 l 34.3655,-13.397 14.651,-66.3638 c 8.0576,-36.5002 16.6469,-70.0872 19.0865,-74.6378 6.3153,-11.7794 25.1948,-22.2483 39.896,-22.1226 6.9144,0.057 37.6249,5.608 68.2456,12.3316 l 55.674,12.2242 10.1644,-9.651 c 12.3,-11.6794 49.1016,-56.229 49.1016,-59.4394 0,-1.2618 -64.5485,-2.2942 -143.4411,-2.2942 -89.7178,0 -147.0855,-1.3856 -153.1716,-3.6996 -26.0812,-9.9161 -58.3607,-48.654 -72.8816,-87.4646 -3.9557,-10.573 -13.0747,-47.2206 -20.2646,-81.44 -7.1899,-34.219 -16.0621,-70.0842 -19.7161,-79.7008 -9.7793,-25.7367 -29.17427,-47.33641 -53.01857,-59.04519 l -20.61341,-10.12223 h -96.9806 -96.98059 l -0.9849,60.16362 -0.98453,60.164 h 84.4956 84.49596 v 100.5725 100.5723 H 646.71364 c -150.14033,0 -272.98241,1.0324 -272.98241,2.2942 0,3.0542 36.5994,47.6419 47.46266,57.822 l 8.57272,8.034 59.08525,-12.7443 c 66.91446,-14.433 77.91241,-14.0569 94.90198,3.2455 9.9696,10.1528 12.46883,17.4378 23.00774,67.0643 19.38355,91.2782 12.82156,79.8868 55.67262,96.6407 42.98935,16.8082 94.49754,30.6466 140.52597,37.7547 45.21666,6.9826 148.07284,7.031 194.80456,0.093 z m 325.27787,-47.0937 c 16.8983,-8.6363 24.6822,-25.0145 23.1611,-48.7321 -1.0079,-15.709 -3.4015,-22.8302 -10.0759,-29.9742 -35.1641,-37.6392 -93.1581,-16.2076 -93.1258,34.4148 0.036,41.0914 41.451,64.0144 80.0406,44.2915 z m -791.97832,-3.7097 c 17.09911,-12.7666 24.05658,-25.5422 24.05658,-44.1736 0,-40.2843 -41.30333,-64.9982 -76.8467,-45.9814 -37.73587,20.1902 -38.71574,70.2171 -1.80061,91.9251 16.68927,9.814 40.09105,9.0551 54.59073,-1.7701 z M 1439.4118,1063.769 c 28.6354,-14.6222 40.6165,-39.3877 40.6165,-83.95664 0,-42.0077 0.3304,-42.33017 43.3202,-42.33017 h 35.8835 l -0.9892,-56.10616 -0.9892,-56.10582 -66.4497,-29.46125 c -99.3649,-44.05473 -99.3749,-44.08564 -49.996,-155.31048 17.9396,-40.40785 31.7313,-75.7785 30.6481,-78.6009 -3.7511,-9.77463 -39.4474,-60.94087 -59.9786,-85.9712 -22.6823,-27.65313 -70.4539,-75.04143 -98.4712,-97.68137 -52.492,-42.41788 -134.849,-87.35726 -199.349,-108.77847 -37.8382,-12.56653 -73.0534,-21.48982 -85.1271,-21.571 -5.2692,-0.0359 -24.1187,15.44794 -56.57657,46.47347 -73.961,70.69777 -79.41742,70.70172 -145.83943,0.1078 -30.16887,-32.06395 -46.32081,-46.63438 -51.69677,-46.63438 -24.2121,0 -105.81193,26.85213 -158.23462,52.07032 -66.57394,32.02581 -119.43375,69.17585 -173.38909,121.85786 l -29.71413,29.01264 365.55435,1.86527 365.55436,1.86526 26.8003,8.23545 c 93.119,28.61466 164.233,96.62895 179.9148,172.07271 15.1609,72.93764 -17.6619,140.01876 -98.4284,201.16072 -13.4085,10.15024 -26.2865,19.21967 -28.618,20.15464 -2.4586,0.9856 1.0421,5.86343 8.3321,11.61113 47.9192,37.77865 71.6417,75.11081 87.6974,138.01017 4.7865,18.7506 9.8019,36.8877 11.1453,40.305 2.7377,6.9636 21.8694,19.7255 36.8012,24.5483 16.4565,5.3153 54.9812,1.6325 71.5789,-6.8429 z M 456.34433,860.25691 V 650.1322 h -44.89842 c -32.70904,0 -44.89843,1.17892 -44.89843,4.34222 0,2.38793 5.83787,17.93388 12.97277,34.54593 9.6819,22.54117 12.47135,33.29457 10.99616,42.38628 -3.91047,24.0968 -12.42033,30.60284 -76.70517,58.63877 -33.22412,14.49 -62.56221,28.94196 -65.19505,32.11495 -8.00592,9.6481 -3.66515,142.86824 6.25131,191.86675 4.32245,21.3564 9.3579,42.7729 11.19011,47.5922 l 3.33147,8.762 h 93.47781 93.47744 z m 554.37837,-88.03328 c 7.591,-2.73268 20.5218,-10.93225 28.735,-18.22088 14.0141,-12.43643 14.9336,-14.4389 14.9336,-32.52048 0,-25.41934 -9.6614,-38.80555 -38.358,-53.14529 L 993.97813,657.31595 H 872.42808 750.87799 v 61.27637 61.2766 l 123.02168,-1.33829 c 92.89626,-1.0108 126.40163,-2.55535 136.82303,-6.307 z m 558.5856,-34.8663 c 12.6915,-9.6341 22.0681,-27.32916 22.0681,-41.64638 0,-4.69175 -3.677,-15.48353 -8.1711,-23.98223 -24.6389,-46.59233 -92.7368,-33.17344 -98.6674,19.44285 -5.1443,45.64116 47.6182,74.38806 84.7704,46.18576 z m -1285.44539,3.4643 c 17.52116,-8.80296 28.80647,-27.02023 28.80647,-46.50041 0,-31.85805 -20.72368,-52.91216 -52.08218,-52.91216 -55.59719,0 -72.79869,72.80441 -23.40322,99.05301 15.67207,8.32813 30.58984,8.4427 46.67893,0.35956 z M 927.43943,255.91799 c 5.24629,-3.09799 13.11644,-11.99794 17.48883,-19.77721 19.48053,-34.66087 -6.86479,-78.12686 -47.32617,-78.08195 -12.37867,0 -33.59443,10.78747 -41.54003,21.09471 -7.33783,9.51883 -11.97925,30.95262 -9.44554,43.62044 2.73592,13.68036 25.43405,38.05482 37.77143,40.56123 12.20016,2.47875 32.09805,-0.94933 43.05148,-7.41722 z" stroke-width="3.592"/>
</svg>
