<svg xmlns="http://www.w3.org/2000/svg" xmlns:xlink="http://www.w3.org/1999/xlink" width="1536" height="1792">
    <defs>
        <path id="a" d="M59.29.636A73.906 73.906 0 0 1 68.994 0c2.252 0 4.5.101 6.721.304l-.326 3.574a70.994 70.994 0 0 0-15.635.316L59.29.636zm22.303 4.092.646-3.53a71.675 71.675 0 0 1 15.728 4.796L96.55 9.286a68.229 68.229 0 0 0-14.957-4.558zM37.282 7.243A71.4 71.4 0 0 1 52.804 1.79l.787 3.505a67.605 67.605 0 0 0-14.75 5.174l-1.559-3.226zm64.885 4.814 1.719-3.141a68.994 68.994 0 0 1 13.373 9.63l-2.415 2.648a65.377 65.377 0 0 0-12.677-9.137zM18.539 20.62a68.73 68.73 0 0 1 12.953-10.215l1.854 3.067a64.968 64.968 0 0 0-12.276 9.682l-2.53-2.534zm100.7 5.039 2.659-2.391a64.65 64.65 0 0 1 9.34 13.64l-3.174 1.642a61.408 61.408 0 0 0-8.826-12.891zM5.41 39.614a64.256 64.256 0 0 1 8.704-14.071l2.763 2.274a60.894 60.894 0 0 0-8.214 13.28L5.41 39.614zm125.198 4.656 3.33-1.29a61.56 61.56 0 0 1 3.786 16.148l-3.55.345a58.237 58.237 0 0 0-3.566-15.203zM.013 62.117a61.407 61.407 0 0 1 2.992-16.31l3.39 1.122a58.251 58.251 0 0 0-2.82 15.356l-3.562-.168zm132.135 19.056a57.993 57.993 0 0 0 2.283-15.447l3.569.044a61.668 61.668 0 0 1-2.424 16.406l-3.428-1.003zM0 68.718l3.57-.114c.181 5.839.815 10.956 1.934 15.637l-3.472.838C.856 80.161.188 74.806 0 68.718zm122.318 31.913a60.42 60.42 0 0 0 7.769-13.547l3.3 1.363a63.91 63.91 0 0 1-8.234 14.356l-2.835-2.172zM3.942 91.46l3.353-1.236c1.841 5.05 4.347 9.428 7.656 13.394l-2.735 2.303c-3.578-4.28-6.282-9.017-8.274-14.46zm102.375 24.019a64.852 64.852 0 0 0 11.968-10.061l2.606 2.451a68.085 68.085 0 0 1-12.63 10.618l-1.944-3.008zm-89.478-4.735 2.4-2.657a51.068 51.068 0 0 0 3.885 3.204c.298.225.521.538.634.895l3.312 10.403-3.4 1.097-3.136-9.861a52.46 52.46 0 0 1-3.695-3.08zm69.486 13.521a67.337 67.337 0 0 0 14.59-5.614l1.653 3.185a71.36 71.36 0 0 1-15.358 5.905l-.885-3.476zm-32.52.525a1.781 1.781 0 0 1 1.185-.082c1.449.405 2.565.69 3.519.908l-.79 3.5a68.28 68.28 0 0 1-3.071-.784L43.9 133.03l-1.424-3.295 11.328-4.944zm15.17 1.657c3.764 0 7.54-.3 11.219-.901l.57 3.549a74.355 74.355 0 0 1-11.79.942c-1.875 0-3.295-.01-4.572-.054l.132-3.59c1.22.045 2.603.054 4.44.054z"/>
        <path id="b" d="M29.853 138.998h-.002a1.779 1.779 0 0 1-1.702-1.246l-2.475-7.768 3.403-1.094 1.873 5.88 5.63-2.458 1.423 3.29-7.445 3.248a1.778 1.778 0 0 1-.705.148z"/>
        <path id="c" d="M36.903 123.08a1.79 1.79 0 0 1-1.778-1.657l-1.374-17.746c-5.824-4.437-10.353-10.162-13.468-17.032-3.073-6.768-4.632-14.324-4.632-22.443 0-27.722 24.382-50.279 54.35-50.279 29.965 0 54.35 22.557 54.35 50.28 0 27.724-24.385 50.281-54.35 50.281-4.984 0-9.917-.623-14.681-1.86L37.8 122.838c-.28.161-.587.244-.897.244z"/>
    </defs>
    <g fill-rule="evenodd" transform="translate(0 128.008) scale(11.97134)">
        <use xlink:href="#a" width="100%" height="100%"/>
        <use xlink:href="#b" width="100%" height="100%"/>
        <use xlink:href="#c" width="100%" height="100%"/>
    </g>
</svg>
