<svg xmlns="http://www.w3.org/2000/svg" width="1536" height="1792">
    <path d="M640.016 256C286.545 256 0 542.532 0 895.984 0 1249.46 286.54 1536 640.016 1536c353.475 0 639.99-286.54 639.99-640.016C1280.006 542.527 993.49 256 640.016 256zM849.47 454.807c13.26.345 26.625 3.909 38.916 11.01 39.38 22.7 52.837 73.016 30.115 112.378-22.695 39.354-73.027 52.838-112.385 30.116-39.358-22.723-52.841-73.036-30.119-112.39 15.628-27.048 44.3-41.873 73.473-41.114zm-209.455 87.68c32.105 0 63.237 4.303 92.832 12.341 5.215 33.433 24.935 64.292 56.507 82.522 31.55 18.229 68.122 19.883 99.641 7.722 59.543 59.073 98.183 139.187 103.836 228.266l-119.084 1.879c-10.508-119.889-111.12-213.875-233.732-213.875-35.303 0-68.84 7.834-98.87 21.787l-57.943-104.053c47.27-23.422 100.499-36.59 156.813-36.59zm-196.03 59.288 61.141 102.207c-60.342 42.442-99.781 112.632-99.781 192.002 0 79.425 39.44 149.587 99.781 192.06l-61.14 102.208c-70.823-47.323-123.58-119.47-145.837-204.05 26.335-21.215 43.215-53.728 43.215-90.214 0-36.463-16.875-68.976-43.215-90.185 22.258-84.586 75.014-156.731 145.836-204.028zm-218.45 211.94c45.476 0 82.318 36.843 82.318 82.27 0 45.444-36.842 82.296-82.319 82.296-45.422 0-82.265-36.847-82.265-82.297 0-45.426 36.843-82.27 82.265-82.27zm648.212 103.09 119.084 1.847c-5.653 89.08-44.289 169.195-103.836 228.295-31.519-12.16-68.09-10.504-99.64 7.725-31.578 18.198-51.297 49.057-56.508 82.514-29.595 8.05-60.731 12.324-92.832 12.324-56.319 0-109.544-13.156-156.813-36.596l57.943-104.053c30.034 13.98 63.571 21.81 98.87 21.81 122.611 0 223.22-94.01 233.732-213.866zm-28.7 255.886c29.176-.766 57.836 14.048 73.458 41.104 22.722 39.358 9.238 89.689-30.115 112.416-39.358 22.695-89.662 9.207-112.389-30.12-22.722-39.352-9.239-89.657 30.12-112.384 12.297-7.1 25.665-10.667 38.927-11.016z"/>
</svg>
